<svg xmlns="http://www.w3.org/2000/svg" width="230" height="60" viewBox="0 0 230 60">
  <g id="Group_2" data-name="Group 2" transform="translate(-91 -94)">
    <rect id="Rectangle_1" data-name="Rectangle 1" width="230" height="60" rx="12" transform="translate(91 94)" fill="#fade4b"/>
    <g id="Group_1" data-name="Group 1" transform="translate(-1)">
      <path id="Path_14" data-name="Path 14" d="M7.14-.728A3.843,3.843,0,0,0,9.814-1.792a3.239,3.239,0,0,0,1.162-2.45A4.224,4.224,0,0,0,10.108-6.8a4.172,4.172,0,0,1-1.876.476q-2.156,0-2.156-1.344,0-.392.532-.714a2.971,2.971,0,0,1,1.526-.322,4.9,4.9,0,0,1,2.17.588,3.885,3.885,0,0,0,1.12-2.716,3.429,3.429,0,0,0-1.638-2.982,6.164,6.164,0,0,0-3.514-1.106,4.525,4.525,0,0,0-.588.028q-.028.812-.14,2.6-.168,2.688-.168,8.2,0,2.128-.308,2.128A2.345,2.345,0,0,1,3.528-2.3a3.277,3.277,0,0,1-.336-1.932q0-.392.154-3.22T3.5-12.012a20.661,20.661,0,0,1,.112-2.548q-1.484.5-1.6,1.624a2.628,2.628,0,0,1-.406,1.288.957.957,0,0,1-.784.364.72.72,0,0,1-.658-.266A1.01,1.01,0,0,1,0-12.1q0-2.436,3.78-3.36.476-1.9,1.512-1.9.42,0,.42,1.568a16.179,16.179,0,0,1,1.806-.084A9.035,9.035,0,0,1,10-15.47a5.661,5.661,0,0,1,2.436,1.428,3.14,3.14,0,0,1,1.036,2.282A5.433,5.433,0,0,1,11.2-7.532a3.647,3.647,0,0,1,1.568,2.94A3.942,3.942,0,0,1,11.7-1.764,7.081,7.081,0,0,1,6.384.28,12.028,12.028,0,0,1,3.136-.028.908.908,0,0,1,2.73-.322a.876.876,0,0,1-.21-.6q0-.588,1.148-.588a7.171,7.171,0,0,1,1.6.392A6.8,6.8,0,0,0,7.14-.728ZM9.52-7.42a2.54,2.54,0,0,0-1.582-.7q-.742,0-.742.308,0,.644,1.372.644A1.912,1.912,0,0,0,9.52-7.42Zm4.648,4.984.168-3.136q0-3,.28-3.276a11.047,11.047,0,0,1,.994-.826,2.176,2.176,0,0,1,1.036-.546q.322,0,.406.112a.814.814,0,0,1,.084.448A6.11,6.11,0,0,1,16.6-7.224,27.325,27.325,0,0,0,16.184-3q0,1.652.532,1.652.644,0,1.512-1.12A13.821,13.821,0,0,0,19.964-5.8,15.642,15.642,0,0,1,20.37-8.82a6.9,6.9,0,0,1,.77-.812,1.7,1.7,0,0,1,1.022-.588q.406,0,.406,1.064a7.307,7.307,0,0,1-.154,1.092,4.372,4.372,0,0,1-.35,1.176,20.38,20.38,0,0,0-.308,4.844q0,.756.168.756.476-.028,1.316-1.19A17.433,17.433,0,0,0,24.906-5.46q.826-1.82,1.008-1.82t.182.224a6.808,6.808,0,0,1-.812,2.492Q23.072.14,21.56.14a2.6,2.6,0,0,1-1.652-.448,2.117,2.117,0,0,1-.2-1.2q0-1.008.084-2.24A12.034,12.034,0,0,1,18-.854,2.655,2.655,0,0,1,16,.14a1.6,1.6,0,0,1-1.47-.588A3.984,3.984,0,0,1,14.168-2.436Zm10.22,0,.168-3.136q0-3,.28-3.276a11.047,11.047,0,0,1,.994-.826,2.176,2.176,0,0,1,1.036-.546q.322,0,.406.112a.814.814,0,0,1,.084.448,6.11,6.11,0,0,1-.532,2.436A27.325,27.325,0,0,0,26.4-3q0,1.652.392,1.652.672,0,1.554-1.19a16.014,16.014,0,0,0,1.806-3.514q.028-.616.056-1.3t.056-1.008q.028-.322.042-.462t.77-.77a2.191,2.191,0,0,1,1.162-.63q.406,0,.406,1.064a7.307,7.307,0,0,1-.154,1.092,4.372,4.372,0,0,1-.35,1.176Q31.92-4.9,31.836-3.416q2.744-3.472,2.926-3.668a.491.491,0,0,1,.322-.2.247.247,0,0,1,.28.28.742.742,0,0,1-.112.364q-.9,1.316-3.528,4.62Q31.556,1.316,31.5,2.52a11.4,11.4,0,0,1-.994,5A3.234,3.234,0,0,1,27.468,8.96a3.056,3.056,0,0,1-1.778-.574A2.25,2.25,0,0,1,24.864,6.4a4.948,4.948,0,0,1,1.078-2.9,57.31,57.31,0,0,1,3.934-4.564l.168-3.052A13.607,13.607,0,0,1,28.168-.938,2.674,2.674,0,0,1,26.124.14Q25,.14,24.7-.42A4.588,4.588,0,0,1,24.388-2.436Zm5.4,2.688Q26.6,3.7,26.6,5.768a3.253,3.253,0,0,0,.336,1.568,1.024,1.024,0,0,0,.924.616,1.293,1.293,0,0,0,1.26-.98A16.441,16.441,0,0,0,29.652,3ZM39.76-2.436l.168-3.136q0-3,.28-3.276a11.046,11.046,0,0,1,.994-.826,2.176,2.176,0,0,1,1.036-.546q.322,0,.406.112a.814.814,0,0,1,.084.448A6.11,6.11,0,0,1,42.2-7.224,27.325,27.325,0,0,0,41.776-3q0,1.652.532,1.652.644,0,1.512-1.12A13.821,13.821,0,0,0,45.556-5.8a15.642,15.642,0,0,1,.406-3.024,6.9,6.9,0,0,1,.77-.812,1.7,1.7,0,0,1,1.022-.588q.406,0,.406,1.064a7.306,7.306,0,0,1-.154,1.092,4.372,4.372,0,0,1-.35,1.176,20.38,20.38,0,0,0-.308,4.844q0,.756.168.756.476-.028,1.316-1.19A17.433,17.433,0,0,0,50.5-5.46q.826-1.82,1.008-1.82t.182.224a6.808,6.808,0,0,1-.812,2.492Q48.664.14,47.152.14A2.6,2.6,0,0,1,45.5-.308a2.117,2.117,0,0,1-.2-1.2q0-1.008.084-2.24A12.034,12.034,0,0,1,43.6-.854a2.655,2.655,0,0,1-2,.994,1.6,1.6,0,0,1-1.47-.588A3.984,3.984,0,0,1,39.76-2.436ZM54.124-8.568l.056-.42q0-.5-.574-.5A1.442,1.442,0,0,0,52.5-8.75a2.3,2.3,0,0,0-.532,1.218,4.03,4.03,0,0,0,.056.756,2.9,2.9,0,0,0,.126.462,2.322,2.322,0,0,0,.238.434q.168.252.252.364l.308.392a3.233,3.233,0,0,0,.28.364q1.456-1.2,3.472-2.688a.41.41,0,0,1,.252-.084q.28,0,.28.308a.539.539,0,0,1-.252.476,32.309,32.309,0,0,0-3.388,2.492,3.388,3.388,0,0,1,.616,1.96A2.4,2.4,0,0,1,53.4-.476,2.92,2.92,0,0,1,51.324.28q-1.26,0-1.26-1.2,0-.868,1.848-2.66-.14-.168-.5-.546t-.546-.6q-.182-.224-.434-.588a2.753,2.753,0,0,1-.448-1.512,3.539,3.539,0,0,1,1.064-2.674,3.241,3.241,0,0,1,2.268-1.022,1.622,1.622,0,0,1,1.176.406,1.166,1.166,0,0,1,.42.826q0,.952-.448.952Q54.124-8.344,54.124-8.568ZM52.332-3.052a3.063,3.063,0,0,0-1.12,1.806.613.613,0,0,0,.7.686.875.875,0,0,0,.7-.336Q53.228-1.736,52.332-3.052ZM65.52-8.568l.056-.42q0-.5-.574-.5A1.442,1.442,0,0,0,63.9-8.75a2.3,2.3,0,0,0-.532,1.218,4.03,4.03,0,0,0,.056.756,2.9,2.9,0,0,0,.126.462,2.322,2.322,0,0,0,.238.434q.168.252.252.364l.308.392a3.233,3.233,0,0,0,.28.364q1.456-1.2,3.472-2.688a.41.41,0,0,1,.252-.084q.28,0,.28.308a.539.539,0,0,1-.252.476,32.31,32.31,0,0,0-3.388,2.492A3.388,3.388,0,0,1,65.6-2.3a2.4,2.4,0,0,1-.812,1.82A2.92,2.92,0,0,1,62.72.28q-1.26,0-1.26-1.2,0-.868,1.848-2.66-.14-.168-.5-.546t-.546-.6q-.182-.224-.434-.588a2.753,2.753,0,0,1-.448-1.512A3.539,3.539,0,0,1,62.44-9.506a3.241,3.241,0,0,1,2.268-1.022,1.622,1.622,0,0,1,1.176.406,1.166,1.166,0,0,1,.42.826q0,.952-.448.952Q65.52-8.344,65.52-8.568ZM63.728-3.052a3.063,3.063,0,0,0-1.12,1.806.613.613,0,0,0,.7.686.875.875,0,0,0,.7-.336Q64.624-1.736,63.728-3.052ZM75.964-6.076a8.107,8.107,0,0,0,1.554-.63q.434-.266.658-.406l.336-.2a.479.479,0,0,1,.224-.084q.224,0,.224.252t-.868.882a9.663,9.663,0,0,1-2.156,1.134,6.37,6.37,0,0,1-1.484,3.808A4.639,4.639,0,0,1,70.784.14a3,3,0,0,1-2.66-1.386A5.718,5.718,0,0,1,67.2-4.494a6.207,6.207,0,0,1,1.106-3.514A3.31,3.31,0,0,1,71.148-9.66a3.119,3.119,0,0,1,1.862-.56,2.6,2.6,0,0,1,2,1.148A4.752,4.752,0,0,1,75.964-6.076Zm-1.82,1.428-1.008.056a3.236,3.236,0,0,1-2.184-.77,2.223,2.223,0,0,1-.9-1.694,3.8,3.8,0,0,1,.308-1.6q-1.2.952-1.2,3.752a6.063,6.063,0,0,0,.56,2.562A1.848,1.848,0,0,0,71.484-1.12,2.125,2.125,0,0,0,73.36-2.142,5.2,5.2,0,0,0,74.144-4.648ZM72.408-9.3a.784.784,0,0,0-.7.406,1.641,1.641,0,0,0-.252.882,2.156,2.156,0,0,0,.714,1.68,2.409,2.409,0,0,0,1.666.644h.336a8.272,8.272,0,0,0-.462-2.492Q73.3-9.3,72.408-9.3Zm7.308,7.784.028.868q0,.784-.448.784a4.522,4.522,0,0,1-1.288-.182q-.616-.182-.616-.5t.154-2.212Q77.7-4.648,77.7-5.6V-7.252a2.767,2.767,0,0,1,.28-1.624,10,10,0,0,1,.994-.812,2.2,2.2,0,0,1,1.036-.532q.322,0,.406.112a.744.744,0,0,1,.084.42,7.076,7.076,0,0,1-.56,2.8q-.14,1.6-.14,2.212,1.484-2.772,2.072-3.64Q82.908-9.94,83.748-9.94a1.455,1.455,0,0,1,.994.42A1.345,1.345,0,0,1,85.2-8.484q0,.616-.014,1.162t-.042.854q-.028.308-.028.392a12.049,12.049,0,0,1,.952-1.26q.84-1.036,1.134-1.344t.63-.616A1.779,1.779,0,0,1,89-9.94a1.493,1.493,0,0,1,.98.392,1.233,1.233,0,0,1,.462.98,35.725,35.725,0,0,1-.266,3.626q-.266,2.394-.266,3.024t.168.63q.476-.028,1.316-1.19A17.433,17.433,0,0,0,93.058-5.46q.826-1.82,1.008-1.82t.182.224a6.808,6.808,0,0,1-.812,2.492Q91.224.14,89.712.14A2.353,2.353,0,0,1,88.2-.308,1.649,1.649,0,0,1,88-1.33q0-.826.154-2.688T88.312-6.8q0-.924-.308-.924-.364,0-1.582,1.232a4.651,4.651,0,0,0-1.3,1.736,30.564,30.564,0,0,0-.168,4.116q0,.784-.42.784a4.007,4.007,0,0,1-1.218-.182q-.574-.182-.574-.5T82.908-3.3q.168-2.436.168-3.43t-.322-.994q-.322,0-1.554,1.918a9.2,9.2,0,0,0-1.358,2.674A9.886,9.886,0,0,0,79.716-1.512ZM95.984.14a2.99,2.99,0,0,1-2.492-1.19,4.289,4.289,0,0,1-.924-2.7,7.137,7.137,0,0,1,1.288-4.62A4.113,4.113,0,0,1,97.188-9.94a2.353,2.353,0,0,1,1.568.518,1.75,1.75,0,0,1,.616,1.414,3.474,3.474,0,0,1-1.414,2.814A5.609,5.609,0,0,1,94.5-4a3.568,3.568,0,0,0,.742,1.89,1.84,1.84,0,0,0,1.47.8,2.945,2.945,0,0,0,1.512-.392,4.311,4.311,0,0,0,1.232-1.12,16.341,16.341,0,0,0,2.016-3.5q.224-.5.35-.728t.28-.224q.154,0,.154.224a9.443,9.443,0,0,1-1.708,4.2Q98.7.14,95.984.14ZM94.5-4.676A4.336,4.336,0,0,0,96.922-5.74a2.792,2.792,0,0,0,.77-2.044q0-1.26-.812-1.26-.98,0-1.652,1.358A7.26,7.26,0,0,0,94.5-4.676ZM111.356-6.8l.224-1.428a.89.89,0,0,0-.2-.56.611.611,0,0,0-.5-.252q-1.036,0-1.792,1.554a6.813,6.813,0,0,0-.756,2.982,4.1,4.1,0,0,0,.588,2.31,1.708,1.708,0,0,0,1.442.882,2.972,2.972,0,0,0,1.526-.392,4.311,4.311,0,0,0,1.232-1.12,16.341,16.341,0,0,0,2.016-3.5q.224-.5.35-.728t.28-.224q.154,0,.154.224a5.136,5.136,0,0,1-.644,2.212q-.644,1.288-1.078,1.974a11.275,11.275,0,0,1-1.106,1.442,4.5,4.5,0,0,1-3.5,1.568A2.807,2.807,0,0,1,107.17-.994a4.04,4.04,0,0,1-.826-2.422,7.425,7.425,0,0,1,1.386-4.858,4.375,4.375,0,0,1,3.514-1.666,2.048,2.048,0,0,1,1.414.462,1.379,1.379,0,0,1,.518,1.05,2.74,2.74,0,0,1-.392,1.624,1.154,1.154,0,0,1-.952.532Q111.356-6.272,111.356-6.8Zm11.76.728a8.107,8.107,0,0,0,1.554-.63q.434-.266.658-.406l.336-.2a.479.479,0,0,1,.224-.084q.224,0,.224.252t-.868.882a9.663,9.663,0,0,1-2.156,1.134A6.37,6.37,0,0,1,121.6-1.316,4.639,4.639,0,0,1,117.936.14a3,3,0,0,1-2.66-1.386,5.718,5.718,0,0,1-.924-3.248,6.207,6.207,0,0,1,1.106-3.514A3.31,3.31,0,0,1,118.3-9.66a3.119,3.119,0,0,1,1.862-.56,2.6,2.6,0,0,1,2,1.148A4.752,4.752,0,0,1,123.116-6.076ZM121.3-4.648l-1.008.056a3.236,3.236,0,0,1-2.184-.77,2.223,2.223,0,0,1-.9-1.694,3.8,3.8,0,0,1,.308-1.6q-1.2.952-1.2,3.752a6.063,6.063,0,0,0,.56,2.562,1.848,1.848,0,0,0,1.764,1.218,2.125,2.125,0,0,0,1.876-1.022A5.2,5.2,0,0,0,121.3-4.648ZM119.56-9.3a.784.784,0,0,0-.7.406,1.641,1.641,0,0,0-.252.882,2.156,2.156,0,0,0,.714,1.68,2.409,2.409,0,0,0,1.666.644h.336a8.272,8.272,0,0,0-.462-2.492Q120.456-9.3,119.56-9.3ZM131.068-6.8l.2-1.064a1.22,1.22,0,0,1-1.148-1.274q0-1.05,1.512-1.05,1.428-7.168,3.556-7.168.42,0,.728.7a5.277,5.277,0,0,1,.308,2.044,10.475,10.475,0,0,1-.616,3.206,9.572,9.572,0,0,1-1.484,2.954l.084.2a4.033,4.033,0,0,0,1.666.364,7.2,7.2,0,0,0,1.344-.1q.49-.1.546-.1.336,0,.336.364,0,.308-.574.462a5.157,5.157,0,0,1-1.33.154,6.154,6.154,0,0,1-1.764-.308,18.54,18.54,0,0,1,.84,6.118,17.526,17.526,0,0,1-.84,6.006q-.84,2.24-2.212,2.24a2.083,2.083,0,0,1-1.4-.532A2.261,2.261,0,0,1,130.2,4.62a85.182,85.182,0,0,1,.728-10.3,9.965,9.965,0,0,1-1.624.672,16.51,16.51,0,0,1,.448,3.668q0,1.708-.056,2.786t-.252,2.492a17.76,17.76,0,0,1-.5,2.478,5.2,5.2,0,0,1-.9,1.806,1.8,1.8,0,0,1-1.47.742,1.948,1.948,0,0,1-1.456-.588,3.466,3.466,0,0,1-.574-2.352q0-4.984.56-10.836a2.308,2.308,0,0,1-1.6-2.3,2.67,2.67,0,0,1,.518-1.68,1.582,1.582,0,0,1,1.3-.672,1.493,1.493,0,0,1,.336.028q.392-2.492.742-4.088a7.063,7.063,0,0,1,1.176-2.716q.826-1.12,1.61-1.12.9,0,.9,1.988a14.378,14.378,0,0,1-2.3,7.028,6.8,6.8,0,0,1,1.26,2.352A9.692,9.692,0,0,0,131.068-6.8Zm-4.144,2.212q-.28,3.836-.28,6.972t.084,4.312q.084,1.176.392,1.176.84,0,1.372-2.45A24.854,24.854,0,0,0,129.024.14a18.383,18.383,0,0,0-.588-4.928A5.4,5.4,0,0,1,126.924-4.592ZM132.216.7q0,5.152.476,5.152.672,0,1.19-1.988A17.919,17.919,0,0,0,134.4-.644q0-5.32-1.064-6.832l-.5.5A61.575,61.575,0,0,0,132.216.7Zm1.568-9.8a6.9,6.9,0,0,0,1.092-2.17,8.49,8.49,0,0,0,.672-2.73q0-1.82-.336-1.82-1.036,0-1.988,6.048A2.66,2.66,0,0,1,133.784-9.1Zm-4.312-5.964q0-1.12-.252-1.12-.448,0-.966,2.016a44.851,44.851,0,0,0-.938,5.376A13.371,13.371,0,0,0,129.472-15.064ZM125.16-8.6q-.784,0-.784.84a1.76,1.76,0,0,0,.9,1.456l.252-2.24A1.331,1.331,0,0,0,125.16-8.6Zm1.848,2.828q.42,0,1.092-.056a5.058,5.058,0,0,0-.9-1.6l-.056.112Q127.036-6.3,127.008-5.768ZM139.832.14a2.99,2.99,0,0,1-2.492-1.19,4.289,4.289,0,0,1-.924-2.7,7.137,7.137,0,0,1,1.288-4.62,4.113,4.113,0,0,1,3.332-1.568,2.353,2.353,0,0,1,1.568.518,1.75,1.75,0,0,1,.616,1.414,3.474,3.474,0,0,1-1.414,2.814A5.609,5.609,0,0,1,138.348-4a3.568,3.568,0,0,0,.742,1.89,1.84,1.84,0,0,0,1.47.8,2.945,2.945,0,0,0,1.512-.392,4.311,4.311,0,0,0,1.232-1.12,16.342,16.342,0,0,0,2.016-3.5q.224-.5.35-.728t.28-.224q.154,0,.154.224a9.443,9.443,0,0,1-1.708,4.2Q142.548.14,139.832.14Zm-1.484-4.816A4.336,4.336,0,0,0,140.77-5.74a2.792,2.792,0,0,0,.77-2.044q0-1.26-.812-1.26-.98,0-1.652,1.358A7.26,7.26,0,0,0,138.348-4.676ZM148.036.14a2.99,2.99,0,0,1-2.492-1.19,4.289,4.289,0,0,1-.924-2.7,7.137,7.137,0,0,1,1.288-4.62A4.113,4.113,0,0,1,149.24-9.94a2.353,2.353,0,0,1,1.568.518,1.75,1.75,0,0,1,.616,1.414,3.474,3.474,0,0,1-1.414,2.814A5.609,5.609,0,0,1,146.552-4a3.568,3.568,0,0,0,.742,1.89,1.84,1.84,0,0,0,1.47.8,2.945,2.945,0,0,0,1.512-.392,4.311,4.311,0,0,0,1.232-1.12,16.342,16.342,0,0,0,2.016-3.5q.224-.5.35-.728t.28-.224q.154,0,.154.224a9.443,9.443,0,0,1-1.708,4.2Q150.752.14,148.036.14Zm-1.484-4.816a4.336,4.336,0,0,0,2.422-1.064,2.792,2.792,0,0,0,.77-2.044q0-1.26-.812-1.26-.98,0-1.652,1.358A7.26,7.26,0,0,0,146.552-4.676Z" transform="translate(145 131.36)"/>
      <g id="coffee" transform="translate(114 108)">
        <path id="Path_1" data-name="Path 1" d="M788.274,296.412l-.022-.013-.051-.016A.121.121,0,0,0,788.274,296.412Z" transform="translate(-768.349 -288.918)" fill="#0d0c22"/>
        <path id="Path_2" data-name="Path 2" d="M802.941,388.891l-.025.007Z" transform="translate(-782.694 -379.096)" fill="#0d0c22"/>
        <path id="Path_3" data-name="Path 3" d="M791.122,297.292l-.009,0a.026.026,0,0,0,0,.006A.018.018,0,0,0,791.122,297.292Z" transform="translate(-771.188 -289.803)" fill="#0d0c22"/>
        <path id="Path_4" data-name="Path 4" d="M791.113,297.449h0v0Z" transform="translate(-771.188 -289.956)" fill="#0d0c22"/>
        <path id="Path_5" data-name="Path 5" d="M791.3,297.653l-.036-.035-.025-.013A.1.1,0,0,0,791.3,297.653Z" transform="translate(-771.315 -290.11)" fill="#0d0c22"/>
        <path id="Path_6" data-name="Path 6" d="M427.15,1186.18a.19.19,0,0,0-.074.057l.023-.015C427.115,1186.208,427.137,1186.191,427.15,1186.18Z" transform="translate(-416.32 -1156.305)" fill="#0d0c22"/>
        <path id="Path_7" data-name="Path 7" d="M640.694,1143.966c0-.033-.016-.027-.012.09a.156.156,0,0,1,.006-.028C640.689,1144.007,640.691,1143.987,640.694,1143.966Z" transform="translate(-624.545 -1115.137)" fill="#0d0c22"/>
        <path id="Path_8" data-name="Path 8" d="M616.416,1186.18a.19.19,0,0,0-.074.057l.023-.015C616.38,1186.208,616.4,1186.191,616.416,1186.18Z" transform="translate(-600.819 -1156.305)" fill="#0d0c22"/>
        <path id="Path_9" data-name="Path 9" d="M278.285,1194.647a.159.159,0,0,0-.078-.037l.062.031Z" transform="translate(-271.2 -1164.523)" fill="#0d0c22"/>
        <path id="Path_10" data-name="Path 10" d="M246.65,1160.257a.249.249,0,0,0-.031-.1.8.8,0,0,1,.03.1Z" transform="translate(-240.408 -1130.94)" fill="#0d0c22"/>
        <path id="Path_11" data-name="Path 11" d="M229.631,558.984a10.123,10.123,0,0,1-4.172,1.057,7.9,7.9,0,0,1-2.106-.29l1.177,12.084a2.019,2.019,0,0,0,2.012,1.853s1.669.087,2.226.087c.6,0,2.4-.087,2.4-.087a2.019,2.019,0,0,0,2.012-1.853l1.261-13.354a5.365,5.365,0,0,0-1.773-.32A7.455,7.455,0,0,0,229.631,558.984Z" transform="translate(-217.728 -544.103)" fill="#fff"/>
        <path id="Path_12" data-name="Path 12" d="M78.688,386.132l.02.019.013.008A.2.2,0,0,0,78.688,386.132Z" transform="translate(-76.707 -376.407)" fill="#0d0c22"/>
        <path id="Path_13" data-name="Path 13" d="M22.153,8.61l-.177-.894a2.235,2.235,0,0,0-1.343-1.85,2.019,2.019,0,0,1-.766-.325,1.327,1.327,0,0,1-.309-.767c-.087-.507-.168-1.015-.257-1.522a4.882,4.882,0,0,0-.337-1.324A2.334,2.334,0,0,0,17.627.87a7.694,7.694,0,0,0-.84-.26A20.557,20.557,0,0,0,12.658.053,34.662,34.662,0,0,0,7.692.135,14.761,14.761,0,0,0,4,.807a3.125,3.125,0,0,0-1.191.672,1.289,1.289,0,0,0-.238,1.537A1.99,1.99,0,0,0,3.5,3.8a7.529,7.529,0,0,0,1.507.491,24.619,24.619,0,0,0,4.412.5,33.6,33.6,0,0,0,4.9-.16q.6-.066,1.2-.159a.913.913,0,0,0,.636-1.119.938.938,0,0,0-1.119-.636l-.223.033-.054.008q-.257.033-.514.061-.531.057-1.064.094c-.8.055-1.6.081-2.393.082s-1.569-.022-2.352-.074Q7.9,2.879,7.368,2.825c-.162-.017-.323-.035-.484-.055l-.153-.019-.033,0-.159-.023c-.325-.049-.65-.105-.972-.173a.146.146,0,0,1,0-.285h.006c.279-.059.559-.11.841-.154L6.7,2.067h0c.176-.012.354-.043.529-.064a33.653,33.653,0,0,1,4.6-.162c.745.022,1.489.065,2.231.141.159.016.318.034.477.053l.183.023.123.018q.538.08,1.071.195c.526.114,1.2.152,1.436.728a3.441,3.441,0,0,1,.15.578l.052.245a.088.088,0,0,1,0,.013l.372,1.733a.318.318,0,0,1-.267.381h0l-.076.01-.075.01q-.356.046-.713.087-.7.08-1.409.139-1.4.117-2.809.153-.717.019-1.434.018a49.761,49.761,0,0,1-5.692-.331c-.2-.024-.409-.05-.614-.077.159.02-.115-.016-.171-.023l-.39-.057c-.436-.065-.87-.146-1.306-.217a2.27,2.27,0,0,0-1.506.217,2.191,2.191,0,0,0-.907.94A5.489,5.489,0,0,0,.193,8.162,4.665,4.665,0,0,0,.012,9.578a2.261,2.261,0,0,0,1.84,2.016c.956.173,1.918.314,2.882.433a53.263,53.263,0,0,0,11.414.166q.464-.043.927-.094a.65.65,0,0,1,.718.712l-.1.935-.582,5.669q-.3,2.976-.611,5.952l-.173,1.676c-.055.55-.063,1.117-.168,1.661a1.93,1.93,0,0,1-1.587,1.571,11.061,11.061,0,0,1-2.357.276c-.879,0-1.758-.034-2.637-.029a4,4,0,0,1-2.813-.78,3.747,3.747,0,0,1-.811-2.405q-.173-1.65-.344-3.3l-.637-6.114-.412-3.956c-.007-.065-.014-.13-.02-.2a.932.932,0,0,0-.91-.91.92.92,0,0,0-.91.91L3.03,16.7l.632,6.067q.27,2.585.539,5.171c.035.33.067.661.1.992a3.519,3.519,0,0,0,3.283,3.051,21.261,21.261,0,0,0,3.029.21,19.658,19.658,0,0,0,3.882-.164,4.015,4.015,0,0,0,3.51-3.566l.173-1.7q.288-2.8.575-5.61l.627-6.11.287-2.8a.65.65,0,0,1,.523-.572,2.552,2.552,0,0,0,1.441-.7A2.458,2.458,0,0,0,22.153,8.61Zm-20.328.6c.008,0-.007.067-.013.1C1.809,9.264,1.812,9.219,1.824,9.214Zm.052.406s.017.014.031.035c-.02-.019-.033-.033-.031-.035Zm.052.068c.019.032.029.052,0,0Zm.1.084h0s0,.006.007.009l-.01-.009Zm18.137-.126a1.428,1.428,0,0,1-.776.313,54.707,54.707,0,0,1-9.807.617A66.019,66.019,0,0,1,2.6,9.908a1.027,1.027,0,0,1-.631-.241c-.295-.316-.15-.953-.073-1.336.07-.35.2-.817.621-.867a8.283,8.283,0,0,1,2.048.3q1.161.177,2.331.284a45.017,45.017,0,0,0,10.028-.188q.906-.122,1.806-.283c.534-.1,1.127-.276,1.45.278a2.3,2.3,0,0,1,.217,1.307.729.729,0,0,1-.227.488Z" transform="translate(0 0)" fill="#0d0c22"/>
      </g>
    </g>
  </g>
</svg>
